<?xml version="1.0" standalone="no"?>
<!DOCTYPE svg PUBLIC "-//W3C//DTD SVG 20010904//EN"
 "http://www.w3.org/TR/2001/REC-SVG-20010904/DTD/svg10.dtd">
<svg version="1.0" xmlns="http://www.w3.org/2000/svg"
 width="32.000000pt" height="32.000000pt" viewBox="0 0 32.000000 32.000000"
 preserveAspectRatio="xMidYMid meet">

<g transform="translate(0.000000,32.000000) scale(0.100000,-0.100000)"
fill="#000000" stroke="none">
<path d="M68 217 c-37 -29 -67 -54 -67 -57 0 -6 135 -110 143 -110 3 0 6 14 6
30 0 25 4 30 24 30 32 0 85 -19 119 -42 27 -19 27 -19 27 2 0 30 -24 82 -47
103 -11 9 -43 23 -71 29 -47 12 -52 15 -52 40 0 16 -3 28 -7 28 -5 -1 -38 -24
-75 -53z"/>
</g>
</svg>
